# xmcd
#
# Track frame offsets: 
#        150
#        11350
#        24745
#        39217
#        55832
#        70465
#        89852
#        105287
#        124560
#        142465
#        155477
#
# Disc length: 2307 seconds
#
# Revision: 9
# Processed by: cddbd v1.5.2PL0 Copyright (c) Steve Scherf et al.
# Submitted via: ExactAudioCopy v0.99pb5
#
DISCID=9309010b
DTITLE=Various Artist - A Very Special Christmas 4 - Live from Washington, D.
DTITLE=C.
DYEAR=1999
DGENRE=Christmas
TTITLE0=Mary J. Blige and Sheryl Crow - Rockin' around the Christmas t
TTITLE0=ree (Live)
TTITLE1=Run DMC - Christmas in Hollis (Live)
TTITLE2=Bon Jovi - Please come home for Christmas (Live)
TTITLE3=Eric Clapton and John Popper - Christmas Blues (A Very Special C
TTITLE3=hristmas) (Live)
TTITLE4=Vanessa Williams - What child is this? (Live)
TTITLE5=Eric Clapton - Christmas tears (Live)
TTITLE6=Tracy Chapman - O holy night (Live)
TTITLE7=Tracy Chapman with Eric Clapton - Give me one reason (Live)
TTITLE8=Sheryl Crow with Eric Clapton - Merry Christmas, baby (Live)
TTITLE9=Bon Jovi - Christmas (baby please come home) (Live)
TTITLE10=Mary J.Blige with Jon Bon Jovi and Friends - Santa Claus is com
TTITLE10=ing to town (Live)
EXTD=
EXTT0=
EXTT1=
EXTT2=
EXTT3=
EXTT4=
EXTT5=
EXTT6=
EXTT7=
EXTT8=
EXTT9=
EXTT10=
PLAYORDER=
